<svg id="free-delivery" width="34" height="34" viewBox="0 0 34 34" fill="none" xmlns="http://www.w3.org/2000/svg">
    <path d="M5.8327 32.0627C7.97613 32.0627 9.71373 30.518 9.71373 28.6125C9.71373 26.707 7.97613 25.1624 5.8327 25.1624C3.68926 25.1624 1.95166 26.707 1.95166 28.6125C1.95166 30.518 3.68926 32.0627 5.8327 32.0627Z" stroke="#222222" stroke-width="2" stroke-linecap="round" stroke-linejoin="round"/>
    <path d="M27.1784 32.0627C29.3218 32.0627 31.0594 30.518 31.0594 28.6125C31.0594 26.707 29.3218 25.1624 27.1784 25.1624C25.035 25.1624 23.2974 26.707 23.2974 28.6125C23.2974 30.518 25.035 32.0627 27.1784 32.0627Z" stroke="#222222" stroke-width="2" stroke-linecap="round" stroke-linejoin="round"/>
    <path d="M27.1784 25.1624H5.8327V1.0127H1.95166" stroke="#222222" stroke-width="2" stroke-linecap="round" stroke-linejoin="round"/>
    <path d="M5.83252 4.46216L32.9998 6.18706L31.0593 18.2613H5.83252" stroke="#222222" stroke-width="2" stroke-linecap="round" stroke-linejoin="round"/>
</svg>