<svg id="guaranteed-savings" width="35" height="35" viewBox="0 0 35 35" fill="none" xmlns="http://www.w3.org/2000/svg">
    <path d="M17.6625 33.6827C26.6854 33.6827 33.9999 26.3693 33.9999 17.3477C33.9999 8.32612 26.6854 1.0127 17.6625 1.0127C8.63967 1.0127 1.3252 8.32612 1.3252 17.3477C1.3252 26.3693 8.63967 33.6827 17.6625 33.6827Z" stroke="#222222" stroke-width="2" stroke-linecap="round" stroke-linejoin="round"/>
    <path d="M22.7453 11.9029C22.4165 11.3326 21.9387 10.8624 21.3632 10.5426C20.7876 10.2229 20.1359 10.0657 19.4779 10.0879H15.8473C14.8845 10.0879 13.961 10.4703 13.2802 11.1511C12.5993 11.8319 12.2168 12.7552 12.2168 13.718C12.2168 14.6808 12.5993 15.6041 13.2802 16.2849C13.961 16.9657 14.8845 17.3481 15.8473 17.3481H19.4779C20.4407 17.3481 21.3642 17.7306 22.045 18.4114C22.7259 19.0921 23.1084 20.0155 23.1084 20.9782C23.1084 21.941 22.7259 22.8644 22.045 23.5451C21.3642 24.2259 20.4407 24.6084 19.4779 24.6084H15.8473C15.1893 24.6305 14.5376 24.4733 13.962 24.1536C13.3865 23.8339 12.9087 23.3637 12.5798 22.7933" stroke="#222222" stroke-width="2" stroke-linecap="round" stroke-linejoin="round"/>
    <path d="M17.6626 6.45679V10.0868M17.6626 24.607V28.2371" stroke="#222222" stroke-width="2" stroke-linecap="round" stroke-linejoin="round"/>
</svg>