<svg id="secure-payment" width="37" height="38" viewBox="0 0 37 38" fill="none" xmlns="http://www.w3.org/2000/svg">
    <path d="M12.646 18.8018L16.5363 22.6862L24.317 14.9174" stroke="#222222" stroke-width="2" stroke-linecap="round" stroke-linejoin="round"/>
    <path d="M18.4815 1.32227C23.0251 5.33601 28.9552 7.42583 35.0154 7.14893C35.8977 10.1458 36.1677 13.2892 35.8093 16.3923C35.4508 19.4954 34.4714 22.495 32.929 25.2126C31.3867 27.9303 29.3129 30.3107 26.831 32.2123C24.3491 34.1139 21.5097 35.498 18.4815 36.2823C15.4533 35.498 12.6138 34.1139 10.1319 32.2123C7.65003 30.3107 5.57629 27.9303 4.03394 25.2126C2.49159 22.495 1.51211 19.4954 1.1537 16.3923C0.795283 13.2892 1.06525 10.1458 1.94757 7.14893C8.00779 7.42583 13.9379 5.33601 18.4815 1.32227" stroke="#222222" stroke-width="2" stroke-linecap="round" stroke-linejoin="round"/>
</svg>