<svg id="daily-offers" width="33" height="34" viewBox="0 0 33 34" fill="none" xmlns="http://www.w3.org/2000/svg">
    <path d="M15.2677 1.0127L31.3188 17.0638C31.7575 17.5543 32 18.1892 32 18.8473C32 19.5053 31.7575 20.1403 31.3188 20.6307L20.618 31.3315C20.1276 31.7702 19.4926 32.0127 18.8346 32.0127C18.1765 32.0127 17.5416 31.7702 17.0511 31.3315L1 15.2804V8.14653C1 6.25452 1.7516 4.44 3.08945 3.10215C4.4273 1.76429 6.24182 1.0127 8.13383 1.0127H15.2677Z" stroke="#222222" stroke-width="2" stroke-linecap="round" stroke-linejoin="round"/>
    <path d="M11.7007 15.2808C13.6706 15.2808 15.2676 13.6838 15.2676 11.7138C15.2676 9.74374 13.6706 8.14673 11.7007 8.14673C9.73074 8.14673 8.13379 9.74374 8.13379 11.7138C8.13379 13.6838 9.73074 15.2808 11.7007 15.2808Z" stroke="#222222" stroke-width="2" stroke-linecap="round" stroke-linejoin="round"/>
</svg>